<svg width="16" height="16" viewBox="0 0 16 16" fill="none" xmlns="http://www.w3.org/2000/svg">
<path fill-rule="evenodd" clip-rule="evenodd" d="M5.33754 1.10618C7.12119 1.10618 8.87991 1.10618 10.6651 1.10618C10.6651 0.913098 10.6559 0.728532 10.6672 0.544989C10.687 0.223825 10.9532 -0.00335878 11.2903 3.75749e-05C11.6276 0.00343393 11.8818 0.23862 11.8931 0.560854C11.897 0.671259 11.8922 0.78185 11.8946 0.892301C11.9 1.13749 11.8362 1.13181 12.1526 1.16145C14.2304 1.35597 15.6576 2.61579 15.9244 4.49815C15.9684 4.80862 15.9952 5.12332 15.9961 5.43615C16.0023 7.51784 15.9991 9.59952 15.9995 11.6812C15.9996 12.4024 15.8972 13.1073 15.5776 13.7744C15.0075 14.9646 13.9769 15.6309 12.6036 15.8813C12.2045 15.9541 11.7908 15.9911 11.3835 15.9928C9.0961 16.0028 6.80861 16.0015 4.52116 15.9944C3.64424 15.9917 2.80268 15.8287 2.03429 15.4288C0.943268 14.8607 0.352669 13.9729 0.125247 12.8764C0.0463463 12.496 0.00902378 12.1033 0.00697308 11.7161C-0.00415192 9.61115 0.0011799 7.50616 0.00194891 5.40121C0.00220525 4.61954 0.129245 3.85973 0.518005 3.15283C1.11419 2.06869 2.11514 1.47591 3.3939 1.23054C3.56892 1.1969 3.74698 1.17103 3.92503 1.15773C4.05801 1.14782 4.12102 1.11274 4.10985 0.979396C4.09723 0.829166 4.10221 0.676982 4.1101 0.526146C4.12456 0.249879 4.35993 0.0267897 4.65261 0.00320134C4.97565 -0.0228529 5.255 0.155665 5.31422 0.442075C5.3399 0.566251 5.33252 0.696289 5.33683 0.823769C5.34 0.914772 5.33754 1.00596 5.33754 1.10618ZM1.23236 6.39606C1.23236 6.46204 1.23236 6.51294 1.23236 6.56379C1.23236 8.29095 1.22883 10.0182 1.23595 11.7453C1.23713 12.0347 1.26236 12.3273 1.31455 12.6126C1.50008 13.6268 2.07802 14.3607 3.18755 14.6919C3.70412 14.846 4.23904 14.8846 4.78011 14.8841C6.92678 14.8821 9.07349 14.887 11.2202 14.8796C11.59 14.8784 11.9647 14.8566 12.3284 14.7986C13.501 14.6118 14.3026 14.018 14.5992 12.952C14.7077 12.5618 14.7574 12.1489 14.7614 11.7458C14.7786 10.0188 14.7688 8.29155 14.7688 6.56439C14.7688 6.50926 14.7688 6.45417 14.7688 6.39611C10.2467 6.39606 5.75501 6.39606 1.23236 6.39606ZM1.24682 5.26299C5.75973 5.26299 10.2594 5.26299 14.7582 5.26299C14.8491 3.57909 13.503 2.17207 11.8943 2.28238C11.8943 2.41242 11.8984 2.54465 11.8929 2.6765C11.8888 2.77434 11.8899 2.87703 11.8575 2.9684C11.769 3.21792 11.4857 3.37554 11.2147 3.34195C10.9092 3.30408 10.6843 3.08727 10.6672 2.79789C10.6564 2.61472 10.6652 2.43057 10.6652 2.24763C8.8736 2.24763 7.11042 2.24763 5.33739 2.24763C5.33739 2.42526 5.34103 2.58787 5.33662 2.7502C5.32744 3.09053 5.06537 3.34405 4.72413 3.34744C4.37485 3.35098 4.11241 3.09407 4.10749 2.74178C4.10533 2.58731 4.10713 2.4328 4.10713 2.28025C2.47032 2.20259 1.10517 3.63571 1.24682 5.26299Z" fill="#8E8E8E"/>
<path fill-rule="evenodd" clip-rule="evenodd" d="M8.81584 9.13156C8.80789 9.5461 8.44317 9.86387 7.98413 9.85619C7.52662 9.84856 7.17631 9.51768 7.18497 9.10127C7.19358 8.6865 7.5562 8.37143 8.01832 8.37729C8.47655 8.38311 8.82389 8.71162 8.81584 9.13156Z" fill="#8E8E8E"/>
<path fill-rule="evenodd" clip-rule="evenodd" d="M11.6918 11.7233C11.691 12.131 11.3191 12.467 10.87 12.4661C10.4212 12.4651 10.0481 12.1255 10.0501 11.7197C10.052 11.3127 10.4311 10.9701 10.8736 10.9754C11.3268 10.9809 11.6927 11.3153 11.6918 11.7233Z" fill="#8E8E8E"/>
<path fill-rule="evenodd" clip-rule="evenodd" d="M5.12491 9.85662C4.66986 9.85406 4.3057 9.52182 4.3096 9.11277C4.3136 8.69725 4.67186 8.37902 5.13485 8.37976C5.59539 8.38055 5.95692 8.70902 5.95067 9.12119C5.94441 9.53438 5.5797 9.85918 5.12491 9.85662Z" fill="#8E8E8E"/>
<path fill-rule="evenodd" clip-rule="evenodd" d="M10.8803 9.85634C10.4252 9.85918 10.0589 9.5355 10.0504 9.12315C10.0421 8.71572 10.4069 8.38158 10.8648 8.37735C11.3242 8.37311 11.6879 8.69484 11.6916 9.10882C11.6954 9.52182 11.3353 9.85355 10.8803 9.85634Z" fill="#8E8E8E"/>
<path fill-rule="evenodd" clip-rule="evenodd" d="M5.13449 10.9901C5.60062 10.9924 5.95667 11.3143 5.95098 11.728C5.94544 12.1344 5.57011 12.4694 5.1244 12.4659C4.67617 12.4624 4.30612 12.123 4.30935 11.7184C4.31273 11.298 4.66427 10.9877 5.13449 10.9901Z" fill="#8E8E8E"/>
<path fill-rule="evenodd" clip-rule="evenodd" d="M7.99148 10.9902C8.46458 10.9863 8.81212 11.2917 8.81632 11.7151C8.82042 12.1285 8.46263 12.4614 8.00963 12.4658C7.55581 12.4702 7.18925 12.1437 7.1851 11.7317C7.18089 11.3061 7.52018 10.9941 7.99148 10.9902Z" fill="#8E8E8E"/>
</svg>
