<svg width="16" height="16" viewBox="0 0 16 16" fill="none" xmlns="http://www.w3.org/2000/svg">
<path fill-rule="evenodd" clip-rule="evenodd" d="M7.54618 16C5.16713 16 2.78812 16 0.409117 16C0.0930209 15.9999 0.00312883 15.9096 0.00312883 15.5921C0.00308415 12.6211 0.00460321 9.65016 1.39298e-06 6.67918C-0.00035603 6.46508 0.0680459 6.31313 0.232371 6.17427C1.05529 5.47855 1.86959 4.77255 2.68938 4.07316C2.77266 4.00212 2.8093 3.92903 2.80818 3.81689C2.80246 3.24171 2.80447 2.66648 2.80599 2.09125C2.80675 1.79173 2.92144 1.67731 3.22284 1.67669C3.92651 1.67521 4.63019 1.68017 5.33373 1.6715C5.42898 1.67034 5.54211 1.62844 5.61529 1.56741C6.17703 1.099 6.73103 0.621308 7.28723 0.146248C7.51513 -0.0483684 7.66569 -0.0485024 7.89149 0.144372C8.44344 0.615768 8.99776 1.08448 9.54649 1.55963C9.64626 1.64604 9.74625 1.67995 9.87756 1.67888C10.5644 1.67307 11.2513 1.67557 11.9382 1.67646C12.2613 1.67687 12.3738 1.78722 12.3744 2.10631C12.3757 2.68154 12.3771 3.25672 12.3729 3.83186C12.372 3.94087 12.4022 4.01566 12.4873 4.08992C13.2907 4.79131 14.0879 5.49995 14.8915 6.20112C15.0416 6.33212 15.1117 6.47549 15.1114 6.67909C15.1067 9.65007 15.1082 12.6211 15.1081 15.592C15.1081 15.9081 15.0163 15.9999 14.7001 15.9999C12.3154 16 9.93077 16 7.54618 16ZM3.45936 2.36508C3.4565 2.41597 3.45302 2.44881 3.45302 2.4816C3.45275 4.48661 3.45154 6.49166 3.45766 8.49667C3.45789 8.56963 3.5132 8.66385 3.57231 8.71197C4.4211 9.40274 5.27529 10.0868 6.12734 10.7735C6.59619 11.1513 7.06348 11.531 7.53586 11.9134C7.58268 11.878 7.62298 11.8494 7.66136 11.8183C8.94071 10.7808 10.219 9.74202 11.5009 8.70764C11.5931 8.63312 11.6271 8.55864 11.6268 8.44109C11.6232 6.47518 11.6242 4.50922 11.6242 2.5433C11.6242 2.48464 11.6242 2.42598 11.6242 2.36504C8.89031 2.36508 6.18297 2.36508 3.45936 2.36508ZM13.8296 15.3087C12.3239 13.9593 10.8535 12.6416 9.37824 11.3196C9.3236 11.3616 9.27941 11.3943 9.2367 11.4288C8.76342 11.8114 8.291 12.1949 7.81706 12.5767C7.61771 12.7373 7.47644 12.7358 7.27883 12.5761C6.81418 12.2007 6.34993 11.8247 5.88523 11.4493C5.83073 11.4053 5.7743 11.3636 5.71675 11.3193C4.22161 12.6494 2.7417 13.9659 1.23239 15.3086C5.4486 15.3087 9.61262 15.3087 13.8296 15.3087ZM0.679283 14.8822C2.1868 13.5363 3.66568 12.216 5.15301 10.8881C3.65782 9.67407 2.17943 8.47362 0.679283 7.25552C0.679283 9.80649 0.679283 12.3213 0.679283 14.8822ZM14.3902 14.8677C14.3902 12.3187 14.3902 9.80193 14.3902 7.25293C12.8875 8.47388 11.4093 9.67496 9.92442 10.8815C11.42 12.2165 12.8963 13.5342 14.3902 14.8677ZM14.1961 6.52959C13.5695 5.98269 12.9546 5.44598 12.3184 4.89063C12.3184 5.95607 12.3184 6.98714 12.3184 8.04842C12.9546 7.53377 13.5686 7.03714 14.1961 6.52959ZM2.73987 4.89318C2.10379 5.44794 1.4888 5.9843 0.864205 6.52906C1.48925 7.0345 2.10455 7.53199 2.73987 8.04578C2.73987 6.97986 2.73987 5.95254 2.73987 4.89318ZM6.52332 1.66293C7.22048 1.66293 7.86853 1.66293 8.55532 1.66293C8.1999 1.35469 7.87322 1.07139 7.53903 0.781523C7.20354 1.07269 6.87726 1.35581 6.52332 1.66293Z" fill="#8E8E8E"/>
<path fill-rule="evenodd" clip-rule="evenodd" d="M7.54469 4.26526C6.67446 4.26526 5.80422 4.2661 4.93399 4.26378C4.8575 4.2636 4.77511 4.25717 4.70586 4.22853C4.56227 4.16915 4.49333 4.04785 4.50615 3.89425C4.51893 3.7415 4.60337 3.63253 4.75621 3.59558C4.83087 3.57748 4.91089 3.57601 4.98845 3.57601C6.68987 3.57503 8.39125 3.57512 10.0927 3.57534C10.4063 3.57534 10.5707 3.69177 10.5748 3.91503C10.5791 4.14427 10.4113 4.26521 10.0884 4.26526C9.24053 4.26526 8.39259 4.26526 7.54469 4.26526Z" fill="#8E8E8E"/>
<path fill-rule="evenodd" clip-rule="evenodd" d="M7.53836 7.21579C8.40404 7.21579 9.26972 7.21498 10.1354 7.21708C10.2121 7.21726 10.2934 7.22316 10.3644 7.24885C10.5088 7.30112 10.5919 7.44776 10.5702 7.59555C10.5466 7.7555 10.4565 7.86085 10.2939 7.89024C10.2286 7.90208 10.1605 7.90137 10.0937 7.90137C8.39024 7.90195 6.6868 7.90195 4.98342 7.90168C4.66866 7.90168 4.50519 7.78574 4.50224 7.56253C4.49924 7.33454 4.6667 7.21579 4.99164 7.21574C5.84056 7.21574 6.68949 7.21579 7.53836 7.21579Z" fill="#8E8E8E"/>
<path fill-rule="evenodd" clip-rule="evenodd" d="M7.53466 6.08175C6.68578 6.08175 5.8369 6.0818 4.98806 6.08162C4.92663 6.08157 4.86466 6.08412 4.80399 6.07693C4.62872 6.0562 4.49813 5.90447 4.50255 5.73219C4.50684 5.56483 4.63381 5.4245 4.80319 5.40457C4.85841 5.39805 4.9147 5.39921 4.97051 5.39921C6.67943 5.39894 8.38832 5.39894 10.0972 5.39908C10.4116 5.39908 10.5743 5.51573 10.5743 5.73974C10.5743 5.96421 10.4111 6.08171 10.0981 6.0818C9.24354 6.08184 8.38908 6.08175 7.53466 6.08175Z" fill="#8E8E8E"/>
</svg>
