<svg width="16" height="16" viewBox="0 0 16 16" fill="none" xmlns="http://www.w3.org/2000/svg">
<path fill-rule="evenodd" clip-rule="evenodd" d="M0.00158031 8.00907C0.00167331 6.277 -0.00293021 4.54488 0.00316111 2.81276C0.00790397 1.46383 0.887426 0.364648 2.19106 0.0730555C2.39319 0.0278123 2.60541 0.0104217 2.81303 0.0099567C4.89384 0.00544634 6.9747 0.00842217 9.05556 0.00558575C9.29708 0.00526026 9.48777 0.0818902 9.60802 0.297737C9.78383 0.613556 9.61094 1.0141 9.25946 1.09807C9.17042 1.11932 9.07533 1.1222 8.98303 1.1223C6.9429 1.1236 4.90272 1.12202 2.86255 1.12392C2.03762 1.12472 1.39417 1.58473 1.18641 2.33029C1.13884 2.50107 1.12062 2.68521 1.12043 2.86321C1.11671 6.29253 1.11587 9.72185 1.11876 13.1512C1.11964 14.1744 1.82856 14.8811 2.85362 14.8819C6.28294 14.8846 9.71231 14.8846 13.1416 14.8819C14.1733 14.8811 14.8752 14.1711 14.8765 13.133C14.879 11.0986 14.8771 9.06427 14.878 7.02995C14.878 6.94323 14.8791 6.8547 14.8957 6.77016C14.9523 6.48187 15.1959 6.3042 15.4927 6.32698C15.7592 6.3474 15.9721 6.56831 15.9909 6.84451C15.9933 6.87925 15.9933 6.91421 15.9933 6.94909C15.9933 9.02995 15.9981 11.1108 15.9915 13.1916C15.9873 14.544 15.1126 15.6367 13.805 15.9319C13.5919 15.98 13.3676 15.9962 13.1484 15.9964C9.71324 16.0003 6.27811 16.0012 2.84293 15.9982C1.38668 15.997 0.262577 15.0387 0.0290143 13.6049C0.00213813 13.4398 0.00278907 13.269 0.00260308 13.1009C0.000789629 11.4036 0.00148732 9.70632 0.00158031 8.00907Z" fill="#8E8E8E"/>
<path fill-rule="evenodd" clip-rule="evenodd" d="M5.351 11.9735C4.47892 11.9501 3.84984 11.1309 4.09716 10.2995C4.27735 9.69381 4.48831 9.09705 4.69565 8.49977C4.73015 8.40026 4.80413 8.30666 4.88015 8.2305C7.47929 5.62685 10.0801 3.02479 12.6828 0.424722C13.2534 -0.145165 14.0307 -0.139678 14.6054 0.429884C14.9315 0.753142 15.2566 1.07738 15.5793 1.40398C16.1387 1.9702 16.143 2.74891 15.5789 3.31443C12.9808 5.91919 10.3804 8.52158 7.77665 11.1207C7.68207 11.2151 7.5522 11.2889 7.42512 11.3336C6.89434 11.5201 6.35942 11.6951 5.82352 11.8666C5.67026 11.9157 5.50872 11.9386 5.351 11.9735ZM11.5308 3.16205C11.5173 3.17298 11.5027 3.18274 11.4905 3.19493C9.58796 5.09714 7.68523 6.99926 5.78451 8.90338C5.73764 8.95034 5.70044 9.01479 5.67886 9.07789C5.51565 9.55534 5.35267 10.0329 5.20244 10.5145C5.177 10.596 5.18202 10.7229 5.23048 10.7802C5.26949 10.8264 5.4034 10.8248 5.48134 10.8004C5.94042 10.6561 6.39713 10.5037 6.85063 10.3428C6.9605 10.3038 7.07252 10.2395 7.15459 10.1578C9.011 8.30801 10.8632 6.45392 12.7176 4.60207C12.7619 4.55789 12.8227 4.53037 12.8708 4.49842C12.4031 4.03204 11.9717 3.60179 11.5308 3.16205ZM13.6605 3.65433C14.0419 3.27356 14.42 2.8964 14.7975 2.5186C14.9028 2.41324 14.9033 2.3048 14.798 2.1992C14.4658 1.86604 14.1332 1.5333 13.7998 1.20139C13.6855 1.08751 13.5761 1.1063 13.4678 1.21576C13.2104 1.47582 12.9522 1.73515 12.6914 1.99187C12.5725 2.1089 12.4467 2.21897 12.3345 2.32252C12.7909 2.78086 13.2195 3.21139 13.6605 3.65433Z" fill="#8E8E8E"/>
</svg>
