
<!-- Dashboard svg icon -->
<svg width="16" height="16" viewBox="0 0 16 16" fill="none" xmlns="http://www.w3.org/2000/svg">
<g clip-path="url(#clip0_43_508)">
<path fill-rule="evenodd" clip-rule="evenodd" d="M15.0606 0.03125C15.0983 0.0453437 15.1354 0.0618437 15.1739 0.073125C15.684 0.222937 16.027 0.66325 16.0276 1.19575C16.0306 3.52872 16.0313 5.86169 16.0276 8.19462C16.0266 8.86319 15.5121 9.36169 14.8224 9.36444C13.5257 9.36959 12.2291 9.36597 10.9324 9.366C10.5939 9.366 10.2554 9.36847 9.91694 9.36544C9.19631 9.35903 8.69628 8.86469 8.69537 8.14572C8.69244 5.84925 8.69306 3.55272 8.69503 1.25622C8.69559 0.633625 9.03322 0.212687 9.64572 0.0532187C9.66015 0.0494375 9.67278 0.0387187 9.68628 0.03125C11.4777 0.03125 13.2692 0.03125 15.0606 0.03125ZM9.69409 4.68559C9.69409 5.82028 9.6939 6.955 9.69428 8.08972C9.69434 8.31912 9.74012 8.36584 9.96631 8.36591C11.5642 8.36634 13.1622 8.36634 14.7602 8.36591C14.9867 8.36591 15.0292 8.32144 15.0293 8.08947C15.0294 5.83047 15.0294 3.57147 15.0293 1.31247C15.0293 1.06706 14.9939 1.03122 14.7518 1.03119C13.159 1.03106 11.5662 1.03106 9.97353 1.03119C9.73431 1.03122 9.69425 1.07122 9.69422 1.31269C9.69393 2.437 9.69409 3.56128 9.69409 4.68559Z" fill="#8E8E8E"/>
<path fill-rule="evenodd" clip-rule="evenodd" d="M0.03125 7.68653C0.0666875 7.58371 0.0919062 7.47587 0.139375 7.37896C0.3535 6.94187 0.710312 6.70112 1.19437 6.69859C2.86066 6.68996 4.52706 6.68815 6.19331 6.69815C6.88697 6.70231 7.36444 7.21956 7.36553 7.93293C7.36775 9.39096 7.36622 10.849 7.36625 12.3071C7.36625 13.1246 7.36691 13.9421 7.36606 14.7597C7.36528 15.5424 6.88022 16.029 6.10131 16.0291C4.50787 16.0294 2.91447 16.0293 1.321 16.0292C0.634781 16.0292 0.254937 15.7458 0.0513125 15.0831C0.0486562 15.0744 0.038125 15.0681 0.03125 15.0606C0.03125 12.6026 0.03125 10.1446 0.03125 7.68653ZM1.03112 11.3516C1.03112 12.4915 1.03097 13.6314 1.03128 14.7713C1.03134 14.9836 1.07597 15.0292 1.28516 15.0292C2.89353 15.0295 4.50191 15.0295 6.11025 15.0292C6.31753 15.0292 6.36606 14.9809 6.36609 14.7709C6.36656 12.5015 6.36653 10.2321 6.36616 7.96271C6.36612 7.74334 6.31819 7.69468 6.10175 7.69462C4.49859 7.69415 2.89544 7.69412 1.29228 7.69462C1.07547 7.69468 1.03128 7.74109 1.03125 7.96309C1.031 9.09259 1.03112 10.2221 1.03112 11.3516Z" fill="#8E8E8E"/>
<path fill-rule="evenodd" clip-rule="evenodd" d="M6.37422 0.03125C6.56828 0.125563 6.78266 0.192844 6.95184 0.320188C7.24328 0.539563 7.36419 0.862531 7.36516 1.22444C7.36781 2.20838 7.37228 3.19241 7.36384 4.17625C7.35797 4.86172 6.86253 5.36069 6.1765 5.36384C4.52622 5.37144 2.87584 5.36963 1.22556 5.36459C0.638281 5.36278 0.205 5.01141 0.059625 4.44628C0.05325 4.42153 0.0408438 4.39838 0.03125 4.37447C0.03125 3.24959 0.03125 2.12475 0.03125 0.999906C0.0504375 0.947375 0.070875 0.895313 0.0885625 0.842313C0.194562 0.525156 0.395781 0.290656 0.698656 0.148125C0.795875 0.102375 0.899312 0.0698125 0.999906 0.03125C2.79134 0.03125 4.58278 0.03125 6.37422 0.03125ZM3.70153 1.03113C2.90016 1.03113 2.09875 1.03097 1.29737 1.03122C1.07331 1.03131 1.03137 1.07228 1.03128 1.29231C1.03097 2.229 1.03097 3.16572 1.03128 4.10238C1.03134 4.32003 1.07725 4.36634 1.29688 4.36638C2.89966 4.36681 4.50241 4.36684 6.10519 4.36631C6.31431 4.36622 6.36588 4.31591 6.36603 4.11034C6.36688 3.16847 6.36684 2.22659 6.36603 1.28469C6.36588 1.07844 6.31622 1.03138 6.10569 1.03128C5.30428 1.03091 4.50291 1.03113 3.70153 1.03113Z" fill="#8E8E8E"/>
<path fill-rule="evenodd" clip-rule="evenodd" d="M0.999875 0.03125C0.899281 0.0698125 0.795844 0.102375 0.698625 0.148125C0.39575 0.290656 0.194531 0.525156 0.0885625 0.842281C0.070875 0.895281 0.0504375 0.947344 0.03125 0.999875C0.03125 0.677 0.03125 0.354125 0.03125 0.03125C0.354125 0.03125 0.677 0.03125 0.999875 0.03125Z" fill="white"/>
<path fill-rule="evenodd" clip-rule="evenodd" d="M12.3685 16.0292C11.5566 16.0292 10.7447 16.03 9.93275 16.029C9.19416 16.0281 8.6971 15.5352 8.695 14.7967C8.69225 13.839 8.69204 12.8814 8.6951 11.9237C8.69744 11.1945 9.19341 10.6962 9.92175 10.6949C11.5508 10.692 13.1799 10.6916 14.8089 10.6951C15.5372 10.6966 16.0283 11.1976 16.0291 11.9285C16.0301 12.8862 16.0303 13.8438 16.029 14.8015C16.028 15.5305 15.5319 16.0276 14.8043 16.0289C13.9924 16.0304 13.1804 16.0292 12.3685 16.0292ZM12.3601 15.0293C13.1615 15.0293 13.9629 15.0295 14.7643 15.0292C14.9877 15.0292 15.0292 14.9881 15.0293 14.7667C15.0296 13.83 15.0296 12.8933 15.0293 11.9566C15.0292 11.7398 14.9832 11.6941 14.7622 11.6941C13.1646 11.6937 11.567 11.6937 9.96947 11.694C9.7406 11.6941 9.69444 11.7397 9.69435 11.9668C9.69388 12.8983 9.69385 13.8297 9.69435 14.7612C9.69447 14.9872 9.73872 15.0292 9.97157 15.0293C10.7678 15.0295 11.5639 15.0293 12.3601 15.0293Z" fill="#8E8E8E"/>
</g>
<defs>
<clipPath id="clip0_43_508">
<rect width="16" height="16" fill="white"/>
</clipPath>
</defs>
</svg>
