<svg width="11" height="6" viewBox="0 0 11 6" fill="none" xmlns="http://www.w3.org/2000/svg">
<path fill-rule="evenodd" clip-rule="evenodd" d="M0 0.634214C0.0478411 0.448835 0.125165 0.282798 0.280337 0.159144C0.541502 -0.0489842 0.920687 -0.0538782 1.18211 0.154833C1.23274 0.195264 1.28038 0.239949 1.32619 0.285886C2.6025 1.56527 3.87847 2.84501 5.154 4.12515C5.18281 4.15408 5.20602 4.1886 5.27687 4.241C5.29706 4.205 5.31042 4.16209 5.33848 4.13389C6.62551 2.84102 7.91403 1.54963 9.2017 0.257397C9.42228 0.0360437 9.67816 -0.0586264 9.98441 0.0372963C10.2258 0.112858 10.3856 0.275778 10.4628 0.518337C10.4752 0.556992 10.4876 0.595588 10.5 0.634243C10.5 0.702813 10.5 0.771354 10.5 0.839924C10.4535 1.06903 10.3102 1.23364 10.1504 1.39347C8.70368 2.84029 7.25935 4.28947 5.8155 5.73912C5.58843 5.96711 5.32477 6.06464 5.01527 5.95485C4.90358 5.91523 4.79349 5.84247 4.70911 5.75823C3.21773 4.26899 1.73073 2.77539 0.241616 1.28388C0.116451 1.15851 0.0438035 1.00794 0 0.839866C0 0.771325 0 0.702755 0 0.634214Z" fill="black" fill-opacity="0.5"/>
</svg>
