<svg width="14" height="10" viewBox="0 0 14 10" fill="none" xmlns="http://www.w3.org/2000/svg">
<path fill-rule="evenodd" clip-rule="evenodd" d="M11.5211 5.6148C11.465 5.6148 11.4088 5.6148 11.3526 5.6148C7.81463 5.6148 4.27665 5.615 0.738671 5.61382C0.642278 5.61378 0.542035 5.61328 0.45023 5.58839C0.160738 5.50989 -0.0305715 5.22072 0.00403525 4.93245C0.042336 4.6132 0.280501 4.38685 0.595384 4.37162C0.653593 4.36876 0.711997 4.3697 0.770323 4.3697C4.29854 4.36962 7.82684 4.36962 11.3551 4.36962C11.4109 4.36962 11.4667 4.36962 11.5225 4.36962C11.5374 4.34817 11.5523 4.32668 11.5672 4.30523C11.5202 4.27964 11.4637 4.26354 11.4274 4.22713C10.3913 3.1895 9.35814 2.1489 8.32211 1.11124C8.13477 0.923575 8.04759 0.710869 8.1233 0.44901C8.24574 0.025355 8.75232 -0.138316 9.09917 0.132334C9.14501 0.168084 9.18561 0.210867 9.22683 0.252283C10.629 1.66094 12.0311 3.06979 13.433 4.47875C13.777 4.82442 13.7763 5.16079 13.431 5.50771C12.019 6.92679 10.6062 8.34517 9.19525 9.76555C9.01005 9.95196 8.80202 10.0482 8.5385 9.97591C8.10331 9.85651 7.93642 9.32693 8.22401 8.97821C8.25803 8.93703 8.29722 8.90003 8.33502 8.86205C9.36584 7.82603 10.3964 6.78981 11.4292 5.75577C11.4651 5.71979 11.5233 5.70631 11.5711 5.68236C11.5544 5.65981 11.5378 5.63731 11.5211 5.6148Z" fill="#C7148A"/>
</svg>
