<svg width="16" height="16" viewBox="0 0 16 16" fill="none" xmlns="http://www.w3.org/2000/svg">
<path fill-rule="evenodd" clip-rule="evenodd" d="M0.000793187 7.98179C0.000793187 6.66668 -0.00130138 5.35163 0.00131692 4.03657C0.00512536 2.1106 1.28747 0.507196 3.16561 0.0939806C3.44772 0.031903 3.74316 0.00595805 4.03255 0.00524397C6.67456 -0.00132559 9.31662 -0.000944503 11.9587 0.00214986C13.9748 0.00457774 15.6233 1.40342 15.9504 3.38847C15.9859 3.60446 15.9963 3.82678 15.9965 4.04614C15.9995 6.6822 16.0006 9.31831 15.9978 11.9544C15.9957 13.9727 14.6062 15.6143 12.6155 15.9498C12.3997 15.9862 12.1773 15.9968 11.958 15.997C9.32186 16.0001 6.68575 16.0012 4.04969 15.9984C2.02917 15.9962 0.391016 14.6129 0.0509219 12.6201C0.0121234 12.3929 0.0036974 12.1583 0.00293571 11.927C-0.0014916 10.6119 0.000745581 9.29684 0.000793187 7.98179ZM7.9889 14.8563C9.3101 14.8563 10.6313 14.8582 11.9525 14.8558C13.5998 14.8529 14.8541 13.5967 14.8553 11.9473C14.8572 9.31679 14.857 6.68625 14.8553 4.05571C14.8543 2.39671 13.5999 1.14521 11.9382 1.14435C9.31362 1.14292 6.68908 1.14302 4.0645 1.14435C2.39359 1.14516 1.14447 2.39685 1.1438 4.07023C1.1428 6.68882 1.14285 9.30746 1.14375 11.926C1.14433 13.6086 2.39326 14.8548 4.07887 14.8561C5.38217 14.8571 6.68551 14.8563 7.9889 14.8563Z" fill="black"/>
<path fill-rule="evenodd" clip-rule="evenodd" d="M7.42845 8.57148C7.13596 8.57148 6.86365 8.57148 6.5913 8.57148C6.11544 8.57148 5.63957 8.57414 5.16371 8.57048C4.82776 8.56786 4.57583 8.32359 4.57231 8.00688C4.56864 7.68068 4.821 7.43128 5.16695 7.42975C5.85099 7.42675 6.53508 7.42885 7.21912 7.4288C7.28296 7.4288 7.34685 7.4288 7.4284 7.4288C7.4284 7.31878 7.4284 7.22534 7.4284 7.13189C7.4284 6.48945 7.42754 5.84706 7.42873 5.20462C7.4294 4.82797 7.66652 4.56961 8.00495 4.57257C8.33495 4.57547 8.56984 4.83278 8.57069 5.19796C8.57217 5.87015 8.57112 6.54229 8.57112 7.21448C8.57112 7.2788 8.57112 7.34306 8.57112 7.4288C8.64734 7.4288 8.71056 7.4288 8.77378 7.4288C9.44592 7.4288 10.1181 7.42814 10.7903 7.42909C11.168 7.42956 11.4278 7.66421 11.4271 8.00116C11.4265 8.33788 11.1671 8.57076 10.7882 8.57124C10.0573 8.57224 9.32643 8.57152 8.57112 8.57152C8.57112 8.64441 8.57112 8.7073 8.57112 8.77009C8.57112 9.44228 8.57184 10.1144 8.57084 10.7866C8.57027 11.1666 8.33919 11.4259 8.00276 11.4276C7.6659 11.4294 7.42926 11.1692 7.42873 10.7925C7.42773 10.0611 7.42845 9.32993 7.42845 8.57148Z" fill="black"/>
</svg>
