<svg width="16" height="16" viewBox="0 0 16 16" fill="none" xmlns="http://www.w3.org/2000/svg">
<path fill-rule="evenodd" clip-rule="evenodd" d="M16 7.53125C16 7.84376 16 8.15624 16 8.46875C15.9904 8.52386 15.9788 8.57866 15.9716 8.63409C15.9335 8.9227 15.9112 9.21424 15.8569 9.49968C15.554 11.0931 14.8288 12.4698 13.6886 13.6208C12.4932 14.8277 11.0568 15.5876 9.37879 15.8768C9.07729 15.9288 8.7722 15.9595 8.46875 16C8.15624 16 7.84376 16 7.53125 16C7.32017 15.9748 7.10855 15.9534 6.89814 15.9237C5.32069 15.7008 3.92604 15.0708 2.7322 14.0165C1.32606 12.7746 0.446487 11.2295 0.122959 9.37657C0.070463 9.07597 0.0404263 8.77146 0 8.46875C0 8.15624 0 7.84376 0 7.53125C0.00960858 7.47614 0.0212092 7.4213 0.0284742 7.36591C0.0665179 7.0773 0.0888599 6.7858 0.143113 6.50032C0.446057 4.90686 1.17127 3.53018 2.31137 2.37918C3.50678 1.17232 4.94322 0.412427 6.62125 0.123193C6.92271 0.0712052 7.22784 0.0405435 7.53125 0C7.84376 0 8.15624 0 8.46875 0C8.67979 0.0252323 8.89145 0.0465978 9.10186 0.0763219C10.6793 0.299194 12.074 0.92922 13.2678 1.98359C14.6739 3.22536 15.5535 4.77058 15.877 6.62351C15.9295 6.92404 15.9596 7.22854 16 7.53125ZM6.11063 8.78661C4.28148 7.46657 4.2766 5.13696 5.44474 3.80519C6.67652 2.40089 8.76224 2.22509 10.1555 3.41023C10.8392 3.99166 11.2551 4.72887 11.3405 5.62391C11.466 6.93825 10.9547 7.98098 9.89465 8.784C10.7566 9.11104 11.4819 9.60198 12.0841 10.2714C12.6882 10.9428 13.0968 11.7211 13.3313 12.6039C15.6437 10.0093 15.8256 5.56344 12.7288 2.76727C9.62459 -0.0355828 4.88784 0.420825 2.36516 3.75551C-0.0198422 6.90826 0.929063 10.7698 2.67411 12.587C2.90308 11.7123 3.31308 10.9378 3.9171 10.2702C4.52025 9.60342 5.24718 9.11374 6.11063 8.78661ZM8.12772 15.063C8.29521 15.0491 8.59718 15.0345 8.89633 14.9977C10.0931 14.8501 11.1779 14.4136 12.1502 13.7031C12.5618 13.4022 12.5555 13.3936 12.4334 12.8924C11.8607 10.5416 9.61244 9.05722 7.2321 9.45808C5.28913 9.78528 3.75578 11.3682 3.49135 13.3255C3.48495 13.3728 3.51736 13.445 3.5556 13.4758C4.85069 14.5182 6.33287 15.0409 8.12772 15.063ZM8.00473 8.41946C9.34313 8.41329 10.428 7.32943 10.4312 5.99532C10.4343 4.66082 9.33169 3.55982 7.99527 3.56299C6.6573 3.56615 5.55376 4.67672 5.56887 6.00485C5.58419 7.34548 6.67382 8.42563 8.00473 8.41946Z" fill="#8E8E8E"/>
</svg>
