<svg width="16" height="16" viewBox="0 0 16 16" fill="none" xmlns="http://www.w3.org/2000/svg">
<path fill-rule="evenodd" clip-rule="evenodd" d="M16 4.90626C16 5.02084 16 5.13541 16 5.24999C15.9176 5.58076 15.7463 5.84826 15.4479 6.02522C15.2872 6.12041 15.1267 6.21572 14.9663 6.3113C14.8403 6.38637 14.7146 6.46192 14.5704 6.54829C14.8091 6.6886 15.0182 6.82435 15.2386 6.93816C15.621 7.13553 15.9055 7.4078 16 7.84377C16 7.94791 16 8.05213 16 8.15627C15.9061 8.58573 15.6263 8.85629 15.2509 9.05434C15.0246 9.17373 14.8094 9.31413 14.5696 9.45674C14.8113 9.59893 15.0246 9.73702 15.2491 9.8536C15.6265 10.0496 15.9049 10.3211 16 10.75C16 10.8645 16 10.9792 16 11.0937C15.8873 11.5221 15.5845 11.7705 15.2158 11.9856C13.2051 13.1588 11.202 14.3451 9.19563 15.5258C8.87444 15.7148 8.56221 15.9242 8.1875 16C8.05209 16 7.91668 16 7.78127 16C7.57368 15.9105 7.35394 15.8418 7.16033 15.7285C5.03341 14.4839 2.91293 13.2282 0.784305 11.9866C0.415438 11.7713 0.112786 11.5223 0 11.0938C0 10.9792 0 10.8646 0 10.75C0.0901182 10.3762 0.302439 10.0992 0.643951 9.91734C0.831431 9.81755 1.01154 9.70387 1.19476 9.59599C1.26762 9.55308 1.3398 9.50898 1.42847 9.45563C1.18645 9.3117 0.973319 9.17254 0.74911 9.05434C0.373639 8.85638 0.0938678 8.58573 0 8.15627C0 8.05213 0 7.94791 0 7.84377C0.0842807 7.66844 0.144828 7.47508 0.260086 7.32313C0.359492 7.19207 0.513951 7.09692 0.656819 7.00583C0.903312 6.84868 1.15969 6.70692 1.43017 6.54803C1.18423 6.40129 0.967311 6.2585 0.7385 6.13839C0.366395 5.94307 0.0955295 5.67148 0 5.24999C0 5.13541 0 5.02084 0 4.90626C0.112147 4.47003 0.424301 4.2226 0.796662 4.00555C2.79021 2.84343 4.77669 1.66921 6.76555 0.499122C7.10003 0.302311 7.42322 0.0818094 7.8125 0C7.94791 0 8.08332 0 8.21873 0C8.4536 0.104861 8.70077 0.188673 8.9214 0.317821C11.0214 1.54662 13.1144 2.78731 15.216 4.01347C15.5849 4.22874 15.8879 4.47736 16 4.90626ZM8.00978 9.48086C8.15623 9.42201 8.30361 9.38315 8.43024 9.30889C10.629 8.01954 12.8253 6.72631 15.0214 5.4327C15.3596 5.23354 15.36 4.94896 15.0222 4.74997C12.8216 3.45372 10.6196 2.15973 8.41972 0.862237C8.13599 0.694911 7.86384 0.695721 7.58186 0.861853C5.37688 2.16105 3.17067 3.45807 0.965564 4.757C0.645996 4.94521 0.644633 5.2358 0.963945 5.42388C3.17335 6.72575 5.38327 8.02678 7.59566 9.32354C7.7174 9.39491 7.86274 9.42619 8.00978 9.48086ZM8.00467 15.2984C8.14583 15.2429 8.29441 15.2059 8.42113 15.1316C10.6249 13.8398 12.8262 12.5439 15.0272 11.2474C15.3566 11.0534 15.3567 10.7662 15.0301 10.5719C14.6857 10.3673 14.3365 10.1707 13.9954 9.96068C13.8933 9.89779 13.8223 9.89664 13.7172 9.95867C12.0907 10.9186 10.4588 11.8691 8.83384 12.8313C8.27255 13.1636 7.73278 13.1672 7.17059 12.8344C5.54101 11.8696 3.90516 10.9156 2.2737 9.95412C2.18269 9.90043 2.11678 9.89174 2.0224 9.94956C1.67198 10.1642 1.31415 10.3667 0.961303 10.5774C0.650214 10.7631 0.645399 11.0539 0.954869 11.2364C3.16884 12.5416 5.38361 13.8454 7.60069 15.1453C7.71855 15.2145 7.85933 15.2445 8.00467 15.2984ZM8.00535 12.3878C8.14502 12.335 8.28495 12.3034 8.40276 12.2343C10.6154 10.9369 12.8258 9.6357 15.0356 8.33365C15.3548 8.14557 15.3532 7.85579 15.0348 7.66635C14.6861 7.45884 14.3328 7.25879 13.9871 7.04643C13.8895 6.98648 13.8214 6.98831 13.7229 7.04643C12.0961 8.00573 10.4636 8.9554 8.83929 9.91879C8.2717 10.2554 7.73001 10.2564 7.16263 9.92016C5.53794 8.95736 3.90584 8.00714 2.27903 7.04792C2.18167 6.99049 2.11362 6.98409 2.01477 7.04498C1.66934 7.25773 1.31602 7.45774 0.967268 7.6652C0.6477 7.85532 0.643993 8.14464 0.962411 8.33224C3.1722 9.63442 5.38246 10.9357 7.59524 12.2328C7.71723 12.3043 7.86295 12.3352 8.00535 12.3878Z" fill="#8E8E8E"/>
</svg>
