<svg width="18" height="18" viewBox="0 0 18 18" fill="none" xmlns="http://www.w3.org/2000/svg">
<path fill-rule="evenodd" clip-rule="evenodd" d="M17 10.0625C16.9401 10.182 16.895 10.3123 16.8174 10.4189C16.6532 10.6445 16.4159 10.742 16.1401 10.7437C15.7808 10.7459 15.4214 10.7474 15.0622 10.7423C14.9685 10.741 14.9315 10.773 14.8974 10.8611C14.7683 11.1952 14.6322 11.5269 14.4847 11.8531C14.4418 11.9479 14.4543 11.9962 14.5239 12.0636C14.7744 12.3063 15.0199 12.5544 15.2652 12.8024C15.6344 13.1759 15.6403 13.6659 15.2738 14.0385C14.8613 14.4579 14.4464 14.8755 14.0221 15.2828C13.9588 15.3436 13.833 15.3755 13.7451 15.3621C13.6816 15.3523 13.5929 15.2485 13.5877 15.1811C13.5815 15.0976 13.6287 14.9879 13.6895 14.925C14.0767 14.5244 14.4741 14.1337 14.8677 13.7395C15.1064 13.5003 15.1049 13.3473 14.8626 13.1047C14.5718 12.8137 14.2803 12.5234 13.9903 12.2317C13.8452 12.0857 13.8332 12.0083 13.9339 11.831C14.1765 11.4038 14.3616 10.9532 14.4942 10.4803C14.5471 10.2917 14.6091 10.2455 14.8062 10.2448C15.2331 10.2434 15.6601 10.2452 16.0871 10.244C16.3728 10.2432 16.4991 10.1188 16.4995 9.83758C16.5005 9.27518 16.5007 8.71286 16.4994 8.15046C16.4988 7.88668 16.3707 7.75762 16.1065 7.75633C15.6796 7.75421 15.2526 7.75633 14.8256 7.75542C14.6023 7.75487 14.5642 7.70641 14.4819 7.49489C14.3091 7.05038 14.1245 6.61024 13.9324 6.17365C13.8496 5.98525 13.8442 5.91508 13.9875 5.77089C14.2886 5.46806 14.5919 5.16757 14.8927 4.86454C15.0951 4.6606 15.0949 4.48878 14.8922 4.2853C14.4991 3.89042 14.1052 3.49633 13.7103 3.10337C13.5134 2.90747 13.338 2.9066 13.1423 3.10066C12.8391 3.40128 12.5386 3.70461 12.2358 4.00569C12.0843 4.15633 12.015 4.15087 11.8203 4.06482C11.384 3.87205 10.9437 3.68773 10.4992 3.51492C10.2908 3.43391 10.2452 3.39761 10.2449 3.16796C10.2442 2.75141 10.2456 2.33482 10.2444 1.91827C10.2435 1.62332 10.1207 1.5006 9.82753 1.50023C9.27559 1.49956 8.72365 1.49956 8.17171 1.50023C7.87822 1.5006 7.75604 1.62291 7.75525 1.9184C7.75412 2.33495 7.75542 2.75154 7.75475 3.16809C7.75437 3.39507 7.7057 3.43758 7.50064 3.51725C7.05621 3.69002 6.61541 3.873 6.17886 4.06482C5.9825 4.15108 5.91566 4.15633 5.76381 4.00514C5.4649 3.70757 5.16782 3.40816 4.8687 3.11083C4.65893 2.90235 4.48987 2.90385 4.27826 3.11491C3.88746 3.50471 3.49692 3.89476 3.10746 4.28584C2.90447 4.48966 2.90447 4.66051 3.10721 4.86454C3.40449 5.16374 3.70386 5.46077 4.00148 5.75968C4.15524 5.91412 4.15158 5.9825 4.06736 6.17411C3.87342 6.61549 3.68844 7.06109 3.51229 7.5098C3.43695 7.70174 3.39232 7.75454 3.18921 7.75517C2.76225 7.75654 2.33524 7.75462 1.90827 7.75604C1.62307 7.75696 1.50056 7.88047 1.50018 8.16626C1.49935 8.72345 1.49931 9.28064 1.50023 9.83779C1.50068 10.1193 1.62645 10.2432 1.91273 10.244C2.33974 10.2451 2.76671 10.2433 3.19367 10.2448C3.39036 10.2455 3.4527 10.2921 3.50554 10.4805C3.63956 10.9585 3.82433 11.4151 4.07507 11.8439C4.15866 11.9869 4.13883 12.1067 4.02156 12.2222C3.72478 12.5145 3.43145 12.8103 3.13717 13.1052C2.89439 13.3483 2.89339 13.5001 3.13258 13.7395C3.53371 14.141 3.93526 14.5422 4.33635 14.9437C4.43186 15.0394 4.45916 15.1487 4.3869 15.2687C4.32551 15.3706 4.22704 15.4027 4.11691 15.3736C4.06486 15.3598 4.01306 15.3242 3.97406 15.2855C3.54888 14.8639 3.12167 14.4441 2.70441 14.0147C2.36428 13.6648 2.37191 13.1752 2.71341 12.8246C2.96406 12.5672 3.21843 12.3133 3.47642 12.0633C3.54634 11.9955 3.55776 11.9474 3.515 11.8529C3.36753 11.5266 3.23126 11.1949 3.10237 10.8609C3.06824 10.7724 3.0309 10.7406 2.93744 10.7423C2.63552 10.7477 2.33345 10.7443 2.03145 10.7443C1.42905 10.7443 1.22665 10.6105 1 10.0625C1 9.35415 1 8.64585 1 7.93748C1.22594 7.38929 1.42805 7.25565 2.03125 7.25565C2.33324 7.25565 2.63532 7.25227 2.93723 7.25765C3.03053 7.25932 3.06812 7.2279 3.10229 7.1393C3.23118 6.80518 3.36749 6.4736 3.51496 6.14731C3.55755 6.05301 3.54692 6.00475 3.47675 5.93687C3.22609 5.69426 2.98073 5.44619 2.73574 5.19778C2.36074 4.81749 2.35995 4.33135 2.73616 3.95122C3.13908 3.54413 3.54442 3.13942 3.95126 2.73625C4.33039 2.36058 4.81828 2.36078 5.19816 2.73537C5.45031 2.98394 5.70122 3.23384 5.94812 3.48754C6.008 3.54909 6.05147 3.55892 6.13393 3.5223C6.46589 3.3749 6.80089 3.23372 7.13972 3.10308C7.23006 3.06824 7.25807 3.02932 7.2569 2.93723C7.25236 2.57802 7.25373 2.21868 7.25569 1.85943C7.25711 1.59582 7.3457 1.36375 7.55648 1.20173C7.66878 1.11539 7.80955 1.06605 7.93744 1C8.64577 1 9.3541 1 10.0624 1C10.6095 1.22623 10.7448 1.43072 10.7448 2.03129C10.7448 2.33328 10.7482 2.63532 10.7428 2.93719C10.7411 3.03061 10.7727 3.06737 10.8616 3.10154C11.1958 3.23005 11.5275 3.36619 11.8534 3.51434C11.9485 3.55759 11.9959 3.54605 12.0635 3.47625C12.3025 3.22943 12.5476 2.98852 12.7913 2.74616C13.1779 2.36145 13.6643 2.35566 14.0492 2.73604C14.4566 3.13858 14.8616 3.54355 15.264 3.95093C15.6397 4.3311 15.6385 4.81878 15.2644 5.19824C15.0158 5.45027 14.766 5.70122 14.5123 5.94816C14.4508 6.008 14.441 6.0513 14.4777 6.13389C14.6253 6.46576 14.7661 6.80097 14.8976 7.13951C14.932 7.22815 14.9698 7.25886 15.0629 7.25757C15.422 7.25277 15.7813 7.25415 16.1406 7.25619C16.4228 7.25778 16.6622 7.36074 16.8278 7.59273C16.9015 7.69599 16.9435 7.82184 16.9999 7.9374C17 8.64585 17 9.35415 17 10.0625Z" fill="#8E8E8E" stroke="#8E8E8E" stroke-width="0.2"/>
<path fill-rule="evenodd" clip-rule="evenodd" d="M4.90623 16.9999C4.78213 16.9177 4.74462 16.8031 4.74562 16.6551C4.75108 15.848 4.74612 15.0408 4.74875 14.2337C4.75313 12.8867 5.70015 11.7836 7.03102 11.5709C7.30484 11.5272 7.37606 11.5699 7.47557 11.8337C7.70126 12.4318 7.92754 13.0299 8.15386 13.6279C8.17007 13.6707 8.18861 13.7125 8.2362 13.7565C8.29075 13.4704 8.34759 13.1846 8.3968 12.8977C8.40264 12.8637 8.36938 12.8211 8.34988 12.7849C8.20436 12.5147 8.0563 12.2459 7.91183 11.9752C7.7794 11.727 7.87899 11.5456 8.15619 11.5433C8.71859 11.5387 9.28107 11.5387 9.84343 11.5433C10.1204 11.5457 10.2203 11.7272 10.088 11.9752C9.94348 12.2459 9.79222 12.5131 9.65241 12.7862C9.62257 12.8445 9.6119 12.9242 9.62207 12.9893C9.66187 13.2447 9.71358 13.4982 9.7698 13.8004C9.8073 13.7157 9.82893 13.6727 9.84576 13.6279C10.0754 13.0201 10.3044 12.4121 10.5336 11.804C10.6176 11.5811 10.6853 11.5394 10.9219 11.5652C12.1649 11.7007 13.2187 12.8268 13.2458 14.0775C13.2648 14.9571 13.2556 15.8375 13.2446 16.7175C13.2434 16.8123 13.1463 16.9059 13.0936 17C10.3645 16.9999 7.63538 16.9999 4.90623 16.9999ZM5.27756 16.4889C6.40928 16.4889 7.54983 16.4889 8.697 16.4889C8.69017 16.4571 8.68842 16.4361 8.68129 16.4172C8.14652 15.0086 7.61009 13.6006 7.07881 12.1906C7.04056 12.089 6.9913 12.0857 6.90321 12.1066C6.07678 12.3032 5.35099 13.034 5.29119 13.8756C5.22981 14.7391 5.27756 15.6104 5.27756 16.4889ZM9.29224 16.4892C10.458 16.4892 11.6003 16.4892 12.7504 16.4892C12.7504 15.7088 12.7582 14.939 12.7485 14.1695C12.7364 13.2037 12.0474 12.3501 11.1119 12.1101C10.9931 12.0796 10.95 12.1097 10.9091 12.2195C10.5548 13.1686 10.1951 14.1158 9.83605 15.0632C9.65778 15.5338 9.47755 16.0036 9.29224 16.4892ZM8.52248 12.0495C8.63904 12.2655 8.75343 12.4523 8.8414 12.6509C8.88461 12.7484 8.90757 12.8724 8.89036 12.9762C8.81306 13.4423 8.71742 13.9054 8.62983 14.3698C8.60779 14.4869 8.54732 14.6189 8.57957 14.7199C8.6968 15.0872 8.8459 15.4444 9.00008 15.8504C9.15327 15.447 9.28987 15.0905 9.42251 14.7325C9.43376 14.7022 9.42159 14.6616 9.41509 14.6267C9.31441 14.0854 9.21627 13.5436 9.10914 13.0036C9.08109 12.8624 9.09513 12.741 9.16868 12.6167C9.27516 12.4366 9.36933 12.2491 9.47705 12.0495C9.14818 12.0495 8.84923 12.0495 8.52248 12.0495Z" fill="#8E8E8E" stroke="#8E8E8E" stroke-width="0.2"/>
<path fill-rule="evenodd" clip-rule="evenodd" d="M4.74976 9.15629C4.75705 6.56765 6.77804 4.64614 9.2127 4.75369C11.2864 4.84529 13.0227 6.49481 13.2248 8.56368C13.33 9.63993 13.0658 10.616 12.4396 11.4964C12.3611 11.6067 12.2703 11.6851 12.1269 11.6465C11.944 11.5973 11.895 11.3969 12.0243 11.2179C12.2857 10.8558 12.4816 10.463 12.6055 10.0335C13.247 7.80892 11.7143 5.52528 9.41093 5.27509C7.10003 5.0241 5.12305 6.90019 5.25598 9.22309C5.29707 9.94147 5.53143 10.5953 5.9494 11.183C5.99357 11.2451 6.03924 11.317 6.04999 11.3893C6.06674 11.502 6.00649 11.5908 5.89818 11.6355C5.77417 11.6866 5.66111 11.6506 5.59794 11.5422C5.40233 11.2062 5.19381 10.8742 5.03683 10.52C4.82389 10.0397 4.75126 9.52229 4.74976 9.15629Z" fill="#8E8E8E" stroke="#8E8E8E" stroke-width="0.2"/>
<path fill-rule="evenodd" clip-rule="evenodd" d="M8.99159 11.3383C7.72636 11.334 6.68911 10.2892 6.69411 9.02416C6.69911 7.75813 7.74436 6.72043 9.00821 6.72681C10.2756 6.73314 11.312 7.77689 11.306 9.04083C11.3001 10.3076 10.2575 11.3426 8.99159 11.3383ZM7.19467 9.03224C7.19413 10.0164 8.00751 10.8339 8.9918 10.8383C9.98191 10.8427 10.8055 10.0232 10.806 9.03316C10.8065 8.04788 9.999 7.23666 9.00834 7.22732C8.02168 7.21799 7.19525 8.04046 7.19467 9.03224Z" fill="#8E8E8E" stroke="#8E8E8E" stroke-width="0.2"/>
</svg>
