<svg width="22" height="16" viewBox="0 0 22 16" fill="none" xmlns="http://www.w3.org/2000/svg">
<path fill-rule="evenodd" clip-rule="evenodd" d="M18.5139 8.98368C18.4237 8.98368 18.3334 8.98368 18.2431 8.98368C12.5578 8.98368 6.8724 8.98399 1.18701 8.98212C1.03211 8.98205 0.871026 8.98124 0.723499 8.94142C0.258299 8.81583 -0.0491271 8.35316 0.00648448 7.89192C0.0680322 7.38112 0.450753 7.01897 0.956756 6.99459C1.0503 6.99002 1.14415 6.99152 1.23788 6.99152C6.90757 6.9914 12.5774 6.9914 18.2472 6.9914C18.3368 6.9914 18.4265 6.9914 18.5162 6.9914C18.5402 6.95708 18.5641 6.92269 18.588 6.88837C18.5124 6.84743 18.4217 6.82167 18.3633 6.76341C16.6983 5.1032 15.0381 3.43825 13.3733 1.77798C13.0722 1.47772 12.9321 1.13739 13.0538 0.718416C13.2505 0.040568 14.0646 -0.221306 14.622 0.211734C14.6956 0.268935 14.7609 0.337388 14.8271 0.403654C17.0804 2.6575 19.3334 4.91166 21.5862 7.166C22.139 7.71907 22.1379 8.25726 21.5831 8.81233C19.314 11.0829 17.0436 13.3523 14.7764 15.6249C14.4788 15.9231 14.1445 16.0771 13.721 15.9615C13.0217 15.7704 12.7535 14.9231 13.2156 14.3651C13.2703 14.2992 13.3333 14.24 13.394 14.1793C15.0505 12.5216 16.7066 10.8637 18.3663 9.20924C18.424 9.15166 18.5175 9.13009 18.5943 9.09177C18.5675 9.0557 18.5407 9.01969 18.5139 8.98368Z" fill="white"/>
</svg>
