<svg width="43" height="45" viewBox="0 0 43 45" fill="none" xmlns="http://www.w3.org/2000/svg">
<path fill-rule="evenodd" clip-rule="evenodd" d="M18.75 0H3.75C1.6875 0 0 1.6875 0 3.75V41.25C0 43.3125 1.6875 45 3.75 45H18.75C27.4219 45 34.125 41.4375 38.1094 35.7656L35.25 37.4062C34.9688 37.5 30.7031 37.5938 29.9531 37.5938C29.7188 37.5938 29.4844 37.5938 29.2969 37.5938C29.0156 37.5938 28.1719 37.7344 28.3125 37.0312C28.3594 36.8438 30.8906 32.625 31.0312 32.4375C31.1719 32.1562 31.5 31.5 31.7344 31.3594L41.9531 25.4062C42.0469 24.6562 42.0938 23.9062 42.0938 23.1094L36 26.6719C35.7188 26.7656 31.4531 26.8125 30.7031 26.8125C30.4688 26.8594 30.2344 26.8594 30.0469 26.8594C29.7656 26.8594 28.9219 26.9531 29.0625 26.2969C29.1562 26.0625 31.6406 21.8906 31.7812 21.7031C31.9219 21.4219 32.25 20.7656 32.4844 20.5781L41.2031 15.5156C41.0156 14.9062 40.8281 14.3438 40.6406 13.7812H40.5938V13.8281H40.5469H40.5V13.875H40.4531V13.9219H40.4062H40.3594V13.9688H40.3125H40.2656V14.0156H40.2188C39.8906 14.2031 39.6562 14.4375 39.2812 14.3438C39.0469 14.2969 38.6719 13.5 38.5312 13.2656L36.6094 9.9375C36.1406 9.09375 35.625 8.57812 36.2344 8.20312L37.0781 7.6875C36.6094 7.17188 36.1406 6.65625 35.625 6.14062L28.4531 10.3125C28.1719 10.4062 23.9062 10.4531 23.1562 10.4531C22.9219 10.4531 22.6875 10.4531 22.5 10.4531C22.2188 10.5 21.375 10.5938 21.5156 9.9375C21.6094 9.70312 24.0938 5.53125 24.2344 5.29688C24.375 5.01562 24.7031 4.35938 24.9375 4.21875L28.9688 1.875C25.9688 0.65625 22.5469 0 18.75 0ZM22.9219 16.8281C23.2969 16.0312 23.6719 15.4688 24 15.2812L34.6875 9.09375C34.8281 9.04688 35.0156 9.04688 35.1094 9.23438L36.1875 11.0156C36.375 11.2969 36.4219 11.5781 36.1406 11.8125L26.1562 17.6719C25.7812 17.8125 25.5469 17.7656 25.4531 17.3906C25.3594 17.1562 25.3125 16.9219 25.3125 16.6406L24.1875 16.3594L23.1094 18.2344L23.625 19.125L24.0469 19.8281L24.5625 20.7188H26.7188L27 19.6406C26.6719 19.2656 25.9219 18.9375 26.5312 18.375C26.7656 18.2344 27.0938 18.0469 27.4219 17.9062L36.9375 12.2812L38.5312 15L27.2812 21.5625C26.5312 21.6562 25.7812 21.6562 25.0312 21.6562L20.9062 21.75C20.3906 21.75 20.2031 21.5625 20.3906 21.1406C21.1875 19.6875 22.0312 18.2344 22.9219 16.8281ZM40.7344 30.6094C40.875 30.2344 41.0156 29.8125 41.1562 29.3906L39.0469 30.6562C38.1562 31.1719 37.2656 31.6875 36.375 32.2031C35.9531 32.4375 35.5312 32.7188 35.0625 32.9531C34.8281 33.0938 34.6406 33.2344 34.4062 33.3281C34.1719 33.4688 33.7031 33.8438 33.4688 33.4219C33.375 33.2812 33.2812 32.625 33.2812 32.5312L32.1562 32.25L31.0312 34.125C31.2656 34.3594 32.4844 36.6094 32.5312 36.6094C32.7188 36.6562 32.9531 36.6562 33.0938 36.6094C33.2812 36.6094 33.4219 36.6094 33.6562 36.6094H34.6875L34.9688 35.5312C34.8281 35.3906 34.6875 35.25 34.5 35.1094C33.7969 34.4531 34.7344 34.125 35.5312 33.6562L40.7344 30.6094ZM41.9531 19.5938C41.9531 19.2656 41.9062 18.9844 41.8594 18.6562L39.7969 19.875C38.9062 20.3906 38.0156 20.9062 37.125 21.4219C36.7031 21.7031 36.2812 21.9375 35.8125 22.2188C35.5781 22.3594 35.3906 22.4531 35.1562 22.5938C34.9219 22.7344 34.4531 23.1094 34.2188 22.6406C34.125 22.5469 34.0312 21.8906 34.0312 21.7969L32.9062 21.5156L31.7812 23.3438C32.0156 23.625 33.2344 25.8281 33.2812 25.875C33.4688 25.9219 33.7031 25.875 33.8438 25.875C34.0312 25.875 34.1719 25.875 34.4062 25.875L35.4375 25.8281L35.7188 24.75C35.5781 24.6094 35.4375 24.4688 35.25 24.3281C34.5469 23.7188 35.4844 23.3906 36.2812 22.9219L41.9531 19.5938ZM33 4.03125C32.7656 3.84375 32.4844 3.70312 32.2031 3.51562L29.5781 5.0625C29.1562 5.34375 28.7344 5.57812 28.2656 5.8125C28.0312 5.95312 27.8438 6.09375 27.6094 6.23438C27.375 6.32812 26.9062 6.75 26.6719 6.28125C26.5781 6.1875 26.4844 5.53125 26.4844 5.39062L25.3594 5.10938L24.2344 6.98438C24.4688 7.21875 25.6875 9.46875 25.7344 9.46875C25.9219 9.51562 26.1562 9.51562 26.2969 9.51562C26.4844 9.51562 26.625 9.51562 26.8594 9.46875H27.8906L28.1719 8.39062C28.0312 8.25 27.8906 8.10938 27.7031 7.96875C27 7.35938 27.9375 6.98438 28.7344 6.51562L33 4.03125Z" fill="#C7148A"/>
</svg>
