<svg width="16" height="14" viewBox="0 0 16 14" fill="none" xmlns="http://www.w3.org/2000/svg">
<path fill-rule="evenodd" clip-rule="evenodd" d="M4.55604 1.03911C4.76909 0.719496 5.05776 0.457423 5.39642 0.276155C5.73508 0.0948859 6.11325 2.79055e-05 6.49737 0H9.49959C9.88371 2.79055e-05 10.2619 0.0948859 10.6005 0.276155C10.9392 0.457423 11.2279 0.719496 11.4409 1.03911L12.0725 1.98722C12.1435 2.09371 12.2398 2.18102 12.3526 2.2414C12.4655 2.30177 12.5916 2.33335 12.7196 2.33333H13.4429C14.0618 2.33333 14.6553 2.57917 15.0928 3.01675C15.5304 3.45434 15.7763 4.04783 15.7763 4.66667V11.6667C15.7763 12.2855 15.5304 12.879 15.0928 13.3166C14.6553 13.7542 14.0618 14 13.4429 14H2.55404C1.9352 14 1.34171 13.7542 0.904121 13.3166C0.466536 12.879 0.220703 12.2855 0.220703 11.6667V4.66667C0.220703 4.04783 0.466536 3.45434 0.904121 3.01675C1.34171 2.57917 1.9352 2.33333 2.55404 2.33333H3.27737C3.40539 2.33335 3.53143 2.30177 3.64431 2.2414C3.7572 2.18102 3.85343 2.09371 3.92448 1.98722L4.55604 1.03911ZM6.44293 7.77778C6.44293 7.36522 6.60681 6.96956 6.89854 6.67783C7.19026 6.38611 7.58592 6.22222 7.99848 6.22222C8.41104 6.22222 8.8067 6.38611 9.09842 6.67783C9.39015 6.96956 9.55404 7.36522 9.55404 7.77778C9.55404 8.19034 9.39015 8.586 9.09842 8.87772C8.8067 9.16944 8.41104 9.33333 7.99848 9.33333C7.58592 9.33333 7.19026 9.16944 6.89854 8.87772C6.60681 8.586 6.44293 8.19034 6.44293 7.77778ZM7.99848 4.66667C7.17336 4.66667 6.38204 4.99444 5.79859 5.57789C5.21515 6.16134 4.88737 6.95266 4.88737 7.77778C4.88737 8.6029 5.21515 9.39422 5.79859 9.97766C6.38204 10.5611 7.17336 10.8889 7.99848 10.8889C8.8236 10.8889 9.61492 10.5611 10.1984 9.97766C10.7818 9.39422 11.1096 8.6029 11.1096 7.77778C11.1096 6.95266 10.7818 6.16134 10.1984 5.57789C9.61492 4.99444 8.8236 4.66667 7.99848 4.66667Z" fill="#1D2630"/>
</svg>
