<svg width="22" height="22" viewBox="0 0 22 22" fill="none" xmlns="http://www.w3.org/2000/svg">
<path fill-rule="evenodd" clip-rule="evenodd" d="M14.3459 16.7952L16.4891 20.5129C17.8012 19.6382 17.8012 19.7256 19.0696 18.4572C19.2883 18.2385 19.4195 18.0636 19.6382 17.8449C19.8131 17.6262 19.9443 17.4075 20.1193 17.1888C20.2942 16.9264 20.4255 16.7077 20.5567 16.489C20.7316 16.1829 20.8628 15.9642 20.9941 15.658C21.7813 13.6898 21.6501 13.9085 21.9563 11.9841C21.9563 11.8966 21.9563 11.8091 21.9563 11.7654V10.5845C21.9563 10.2783 21.9125 9.97215 21.8688 9.75346C21.6939 8.92245 21.0815 9.05366 20.163 9.05366C19.6819 9.05366 12.2903 9.00992 11.9841 9.0974C11.7217 9.18487 11.4593 9.4473 11.4593 9.75346C11.4155 10.497 11.4593 11.328 11.4593 12.0716C11.4593 12.5089 11.4155 12.8151 11.5905 13.1213C11.8092 13.3837 11.9841 13.4274 12.509 13.4274C14.0398 13.3837 15.6143 13.4274 17.1889 13.4274L16.9702 13.9523C16.4016 15.002 15.6143 15.9642 14.5646 16.6203C14.4334 16.7077 14.4334 16.664 14.3459 16.7952Z" fill="#167EE5"/>
<path fill-rule="evenodd" clip-rule="evenodd" d="M1.4433 5.51093L5.20473 7.65408C5.2922 7.61034 5.42342 7.34791 5.51089 7.2167C5.77332 6.77932 6.12322 6.42942 6.51686 6.03579C6.95423 5.64215 7.74151 5.16103 8.26636 4.89861C10.497 3.93638 13.1212 4.19881 15.0894 5.72962C15.2206 5.86084 15.3081 5.94831 15.5705 5.99205C16.0954 6.12326 16.489 5.55467 16.8389 5.16103L18.326 3.67396C18.5447 3.32406 18.4572 2.88668 18.1511 2.66799C16.5328 1.3996 15.4393 0.743539 13.2962 0.262425C12.7713 0.131213 12.2027 0.0437376 11.6779 0H10.3658C8.09141 0.17495 5.86079 1.00596 4.19877 2.36183C3.41149 2.97416 3.14906 3.28032 2.53674 3.98012L2.05562 4.59245C1.83694 4.89861 1.61825 5.20477 1.4433 5.51093Z" fill="#FF4B25"/>
<path fill-rule="evenodd" clip-rule="evenodd" d="M1.4433 16.489C1.96815 17.32 2.58048 18.1511 3.23654 18.8071C3.36775 18.9821 3.49896 19.0258 3.63018 19.157C4.63614 20.1192 6.12322 20.994 7.52282 21.4314C8.44131 21.7375 9.40354 21.9562 10.3658 22H11.5029C12.5526 21.9562 13.5586 21.7375 14.6083 21.3876C15.1769 21.2127 16.0516 20.819 16.489 20.5129L14.3459 16.7952C14.2147 16.8389 13.5149 17.1888 13.2087 17.2763C11.8528 17.8012 10.1033 17.7574 8.87869 17.32C8.09141 17.0576 7.30413 16.6202 6.73555 16.1391C6.47312 15.8767 6.16696 15.6143 5.90453 15.3081L5.2922 14.4771C5.20473 14.3896 5.2922 14.3896 5.20473 14.3459L1.4433 16.489Z" fill="#12B346"/>
<path fill-rule="evenodd" clip-rule="evenodd" d="M1.44334 16.4891L5.20477 14.3459C5.1173 13.9523 3.71769 12.0716 4.54871 9.18488C4.63618 8.92246 4.7674 8.61629 4.85487 8.39761C4.94235 8.17892 5.16103 7.87275 5.20477 7.65407L1.44334 5.51093C1.09344 6.12325 0.612326 7.21669 0.437376 7.96023C0.17495 8.83498 0.0437376 9.666 0 10.497V11.5467C0.0874752 13.2525 0.612326 14.9145 1.44334 16.4891Z" fill="#FDD500"/>
</svg>
