<svg width="26" height="26" viewBox="0 0 26 26" fill="none" xmlns="http://www.w3.org/2000/svg">
<path fill-rule="evenodd" clip-rule="evenodd" d="M12.4413 0C12.8138 0 13.1862 0 13.5585 0C13.6737 0.0195024 13.7884 0.043474 13.9042 0.0576269C14.39 0.116879 14.8821 0.142679 15.3613 0.235586C18.6255 0.868874 21.2863 2.4999 23.3162 5.13307C24.7783 7.02968 25.6345 9.17996 25.8937 11.5642C25.9273 11.8737 25.9645 12.1829 26 12.4922C26 12.8308 26 13.1693 26 13.5078C25.9848 13.5646 25.9622 13.6203 25.9558 13.678C25.9 14.1727 25.8728 14.6721 25.7889 15.1619C25.2357 18.397 23.6658 21.0478 21.1252 23.112C19.1685 24.7017 16.923 25.6296 14.4103 25.8962C14.1093 25.9282 13.8086 25.9653 13.5078 26C13.1693 26 12.8307 26 12.4922 26C12.3764 25.9811 12.261 25.9592 12.1447 25.9438C11.5512 25.8651 10.9491 25.8277 10.3653 25.704C7.20446 25.0339 4.63508 23.4055 2.66797 20.8462C1.30768 19.0764 0.470497 17.0766 0.160354 14.8621C0.0973093 14.4121 0.0530223 13.9593 0 13.5078C0 13.1693 0 12.8308 0 12.4922C0.0190961 12.3681 0.0418489 12.2444 0.0566111 12.1198C0.114441 11.6337 0.141393 11.1421 0.230643 10.6619C0.675001 8.2712 1.69685 6.15363 3.33004 4.35074C5.53436 1.9174 8.27113 0.491692 11.5406 0.108076C11.8409 0.0728633 12.1411 0.0360253 12.4413 0ZM10.1659 20.7704C10.2886 20.6657 10.3412 20.6239 10.3903 20.5781C12.6376 18.4854 14.8854 16.393 17.1314 14.2988C18.5607 12.966 19.9886 11.6319 21.4146 10.2954C22.0036 9.74336 22.1764 8.97843 21.8811 8.28231C21.4066 7.16444 19.9815 6.85876 19.0689 7.69209C18.0444 8.62759 17.0314 9.57563 16.0169 10.522C14.2909 12.132 12.5676 13.7451 10.843 15.3565C10.6953 15.4945 10.5455 15.6301 10.385 15.7774C10.2706 15.6551 10.1671 15.5446 10.0637 15.434C8.97803 14.2717 7.89009 13.1115 6.80804 11.9459C6.45781 11.5684 6.03865 11.3409 5.52339 11.3168C4.82123 11.2839 4.16011 11.6917 3.86636 12.3226C3.55445 12.9926 3.67323 13.7284 4.20108 14.2944C6.14543 16.3797 8.09371 18.4612 10.038 20.5465C10.0949 20.6075 10.1237 20.6947 10.1659 20.7704Z" fill="#C7148A"/>
</svg>
