<svg width="18" height="20" viewBox="0 0 18 20" fill="none" xmlns="http://www.w3.org/2000/svg">
<path fill-rule="evenodd" clip-rule="evenodd" d="M5.93139 1.35454C7.91347 1.35454 9.86787 1.35454 11.8517 1.35454C11.8517 1.11811 11.8415 0.892101 11.8541 0.66735C11.876 0.274078 12.1718 -0.00411289 12.5464 4.60112e-05C12.9213 0.00420491 13.2038 0.292194 13.2163 0.686777C13.2206 0.821969 13.2153 0.95739 13.218 1.09264C13.2239 1.39288 13.1531 1.38593 13.5046 1.42222C15.8137 1.66041 17.3996 3.20308 17.6962 5.50808C17.745 5.88825 17.7748 6.2736 17.7758 6.65667C17.7827 9.20574 17.7792 11.7548 17.7795 14.3039C17.7796 15.187 17.6659 16.0501 17.3107 16.867C16.6772 18.3244 15.5319 19.1404 14.0059 19.447C13.5623 19.5361 13.1026 19.5814 12.65 19.5835C10.1081 19.5957 7.56612 19.5941 5.02418 19.5854C4.04968 19.5821 3.1145 19.3826 2.26062 18.8928C1.04821 18.1973 0.391906 17.1101 0.139181 15.7674C0.0515027 15.3017 0.0100277 14.8208 0.00774889 14.3466C-0.00461386 11.769 0.00131117 9.19144 0.00216574 6.61389C0.0024506 5.65672 0.143625 4.72632 0.575637 3.8607C1.23816 2.53316 2.35046 1.80729 3.77149 1.50682C3.96599 1.46563 4.16385 1.43395 4.36171 1.41766C4.5095 1.40553 4.57952 1.36257 4.5671 1.19929C4.55308 1.01533 4.55861 0.828977 4.56738 0.644277C4.58345 0.305982 4.845 0.0328045 5.17025 0.0039201C5.52923 -0.0279838 5.83966 0.190615 5.90546 0.54133C5.93401 0.693386 5.9258 0.85262 5.93059 1.00872C5.93412 1.12016 5.93139 1.23182 5.93139 1.35454ZM1.36947 7.8321C1.36947 7.91289 1.36947 7.97521 1.36947 8.03748C1.36947 10.1524 1.36554 12.2674 1.37346 14.3823C1.37477 14.7367 1.4028 15.095 1.4608 15.4444C1.66698 16.6863 2.30921 17.585 3.54218 17.9905C4.11623 18.1793 4.71066 18.2265 5.31194 18.2259C7.69743 18.2234 10.083 18.2295 12.4685 18.2204C12.8795 18.2189 13.2959 18.1921 13.7 18.1212C15.0031 17.8924 15.8938 17.1653 16.2235 15.86C16.344 15.3822 16.3993 14.8766 16.4037 14.3829C16.4229 12.2682 16.412 10.1532 16.412 8.03823C16.412 7.97071 16.412 7.90326 16.412 7.83216C11.3867 7.8321 6.3953 7.8321 1.36947 7.8321ZM1.38554 6.44463C6.40054 6.44463 11.4008 6.44463 16.4001 6.44463C16.5012 4.38267 15.0054 2.65975 13.2176 2.79482C13.2176 2.95406 13.2222 3.11597 13.2161 3.27743C13.2115 3.39724 13.2128 3.52297 13.1768 3.63487C13.0784 3.9404 12.7635 4.13342 12.4624 4.09229C12.1229 4.04591 11.873 3.78043 11.854 3.42607C11.842 3.20177 11.8518 2.97628 11.8518 2.75227C9.86086 2.75227 7.90151 2.75227 5.93121 2.75227C5.93121 2.96978 5.93526 3.1689 5.93036 3.36767C5.92016 3.78441 5.62893 4.09485 5.24973 4.09901C4.86158 4.10334 4.56994 3.78874 4.56448 3.35736C4.56208 3.16821 4.56408 2.97901 4.56408 2.7922C2.74516 2.69712 1.22813 4.452 1.38554 6.44463Z" fill="#8E8E8E"/>
<path fill-rule="evenodd" clip-rule="evenodd" d="M9.79686 11.1818C9.78803 11.6894 9.38274 12.0785 8.87262 12.0691C8.3642 12.0598 7.97492 11.6546 7.98455 11.1447C7.99412 10.6368 8.39708 10.251 8.91062 10.2582C9.41983 10.2653 9.80581 10.6675 9.79686 11.1818Z" fill="#8E8E8E"/>
<path fill-rule="evenodd" clip-rule="evenodd" d="M12.9924 14.3554C12.9915 14.8546 12.5782 15.2661 12.0792 15.265C11.5804 15.2638 11.1658 14.8479 11.168 14.351C11.1701 13.8527 11.5914 13.4331 12.0831 13.4396C12.5867 13.4463 12.9934 13.8559 12.9924 14.3554Z" fill="#8E8E8E"/>
<path fill-rule="evenodd" clip-rule="evenodd" d="M5.69511 12.0696C5.18943 12.0665 4.78477 11.6596 4.7891 11.1588C4.79354 10.6499 5.19166 10.2603 5.70616 10.2612C6.21793 10.2621 6.61969 10.6644 6.61274 11.1691C6.60579 11.675 6.2005 12.0727 5.69511 12.0696Z" fill="#8E8E8E"/>
<path fill-rule="evenodd" clip-rule="evenodd" d="M12.0908 12.0693C11.5851 12.0728 11.1781 11.6764 11.1686 11.1715C11.1593 10.6726 11.5648 10.2634 12.0735 10.2582C12.5841 10.253 12.9882 10.647 12.9924 11.1539C12.9966 11.6597 12.5964 12.0659 12.0908 12.0693Z" fill="#8E8E8E"/>
<path fill-rule="evenodd" clip-rule="evenodd" d="M5.70555 13.4576C6.22353 13.4605 6.6192 13.8545 6.61287 14.3612C6.60672 14.8588 6.18963 15.269 5.69433 15.2648C5.19623 15.2605 4.78501 14.8448 4.7886 14.3494C4.79236 13.8347 5.18301 13.4547 5.70555 13.4576Z" fill="#8E8E8E"/>
<path fill-rule="evenodd" clip-rule="evenodd" d="M8.88052 13.4577C9.40625 13.453 9.79246 13.8269 9.79713 14.3454C9.80168 14.8515 9.40408 15.2592 8.90069 15.2646C8.39638 15.27 7.98903 14.8702 7.98442 14.3657C7.97975 13.8445 8.35678 13.4625 8.88052 13.4577Z" fill="#8E8E8E"/>
</svg>
