<svg width="24" height="24" viewBox="0 0 24 24" fill="none" xmlns="http://www.w3.org/2000/svg">
<path fill-rule="evenodd" clip-rule="evenodd" d="M12.0125 1.27398e-05C18.5891 -0.00958967 24.0064 5.41028 24.004 11.9973C24.0017 18.6745 18.6123 24.0489 11.8801 23.9997C5.32385 23.9518 0.0372803 18.6761 0.000193479 12.0669C-0.0371873 5.39216 5.34678 0.00971313 12.0125 1.27398e-05ZM12.0058 13.7953C11.8972 13.661 11.8447 13.5824 11.7793 13.5169C10.3398 12.0753 8.89893 10.635 7.45788 9.195C7.38562 9.12279 7.31365 9.04911 7.23375 8.986C6.5922 8.47987 5.66106 8.8184 5.49238 9.61756C5.40037 10.0537 5.56768 10.3943 5.87084 10.6967C7.6151 12.4363 9.35568 14.1794 11.0977 15.9212C11.7034 16.5269 12.2923 16.5293 12.8958 15.9262C14.4153 14.4079 15.9339 12.8886 17.4526 11.3696C17.7117 11.1104 17.979 10.8586 18.2269 10.5891C18.5285 10.2613 18.6175 9.87535 18.4563 9.45246C18.2995 9.04132 17.9881 8.80807 17.5561 8.75427C17.173 8.70651 16.8645 8.86656 16.5965 9.13553C15.1464 10.5906 13.6922 12.0416 12.2411 13.4958C12.1693 13.5677 12.1142 13.656 12.0058 13.7953Z" fill="#BCBCBC"/>
</svg>
