<svg width="18" height="15" viewBox="0 0 18 15" fill="none" xmlns="http://www.w3.org/2000/svg">
<path fill-rule="evenodd" clip-rule="evenodd" d="M18 2.18213C18 5.92481 18 9.6674 18 13.4101C17.9497 13.5767 17.9199 13.754 17.8455 13.9081C17.5547 14.51 17.0672 14.7928 16.4258 14.7945C15.2833 14.7976 14.1409 14.7954 12.9985 14.7954C9.20209 14.7954 5.40572 14.795 1.60936 14.796C1.1971 14.7961 0.82566 14.6884 0.50871 14.4003C0.216939 14.1352 0.0758429 13.7919 0 13.4102C0 9.66745 0 5.92486 0 2.18218C0.050313 2.01555 0.0800614 1.8383 0.154498 1.68421C0.445259 1.08235 0.932789 0.799489 1.57425 0.797803C2.72252 0.794705 3.8708 0.796892 5.01908 0.796892C8.8096 0.796892 12.6001 0.797302 16.3906 0.796345C16.8029 0.796254 17.1743 0.903922 17.4913 1.19202C17.783 1.45712 17.9241 1.80035 18 2.18213ZM16.6382 1.62352C16.3915 1.53831 1.51809 1.55553 1.37901 1.63577C1.42247 1.67833 1.46417 1.72052 1.50724 1.76126C3.79232 3.9225 6.07767 6.08342 8.36254 8.24484C8.82507 8.68244 9.17458 8.68244 9.63702 8.24539C11.1652 6.80101 12.6947 5.35804 14.2227 3.91348C15.0233 3.15657 15.822 2.39747 16.6382 1.62352ZM16.6324 14.0018C16.6405 13.981 16.6486 13.9601 16.6567 13.9393C14.6816 12.0519 12.7065 10.1643 10.727 8.27264C10.4982 8.48688 10.3031 8.66973 10.1077 8.85244C9.3982 9.51585 8.6011 9.51504 7.89026 8.85035C7.69494 8.66773 7.49975 8.48492 7.27271 8.27246C5.29029 10.1671 3.31319 12.0567 1.33608 13.9462C1.34746 13.9647 1.35885 13.9833 1.37023 14.0018C6.45759 14.0018 11.545 14.0018 16.6324 14.0018ZM0.771436 13.4297C2.76607 11.522 4.73473 9.6392 6.71522 7.7451C4.75315 5.88781 2.78022 4.02023 0.771436 2.11871C0.771436 5.9188 0.771436 9.66057 0.771436 13.4297ZM11.2848 7.74519C13.2658 9.6397 15.2362 11.5241 17.2263 13.4273C17.2263 9.65569 17.2263 5.91479 17.2263 2.12048C15.2162 4.02342 13.2459 5.88854 11.2848 7.74519Z" fill="#8E8E8E"/>
</svg>
