<svg width="17" height="27" viewBox="0 0 17 27" fill="none" xmlns="http://www.w3.org/2000/svg">
<path fill-rule="evenodd" clip-rule="evenodd" d="M7.45481 26.3684C6.95988 26.3183 6.46363 26.279 5.97037 26.216C4.45469 26.0226 2.96226 25.7246 1.61862 24.9574C1.19349 24.7146 0.790813 24.3896 0.465392 24.0242C-0.155744 23.327 -0.137362 22.4544 0.444612 21.7231C0.941401 21.0988 1.61682 20.7271 2.335 20.4223C3.31206 20.0077 4.33874 19.774 5.43135 19.5983C5.35583 19.4946 5.29742 19.4117 5.23621 19.3309C4.12707 17.8658 2.9895 16.4212 1.917 14.9299C1.03684 13.706 0.414441 12.3538 0.139039 10.8501C-0.693028 6.30651 2.29443 1.8759 6.82648 0.962649C7.16649 0.894182 7.51162 0.85109 7.85436 0.796143C8.27062 0.796143 8.68682 0.796143 9.10302 0.796143C9.64943 0.896246 10.2054 0.960451 10.7406 1.10238C14.134 2.00178 16.6523 5.02847 16.958 8.52019C17.1465 10.6727 16.5598 12.6131 15.4269 14.4192C14.4476 15.9806 13.2746 17.3982 12.1512 18.8527C11.9689 19.0888 11.785 19.3236 11.5805 19.5865C11.9965 19.6693 12.3846 19.7383 12.7688 19.8245C13.7132 20.0365 14.6389 20.3137 15.4676 20.8253C15.838 21.0541 16.1973 21.3298 16.49 21.6498C17.1795 22.4037 17.1605 23.3328 16.49 24.1081C16.0505 24.6162 15.4885 24.9519 14.8853 25.2253C13.6609 25.7803 12.3626 26.0529 11.0376 26.2162C10.5438 26.2771 10.0477 26.3182 9.55259 26.3683C8.85333 26.3684 8.15407 26.3684 7.45481 26.3684ZM8.49761 22.0014C8.55735 21.9288 8.59971 21.8807 8.6384 21.8297C9.63591 20.5189 10.6414 19.2142 11.6277 17.8951C12.6183 16.57 13.6394 15.2636 14.5568 13.8888C15.7157 12.1521 16.2217 10.2294 15.9035 8.1237C15.2217 3.61244 10.5163 0.717418 6.19335 2.1603C2.03855 3.54697 -0.0620344 8.05383 1.5365 12.1514C2.02529 13.4044 2.77444 14.5036 3.58073 15.5644C5.07083 17.5249 6.57712 19.473 8.07568 21.427C8.21568 21.6095 8.34835 21.7978 8.49761 22.0014ZM8.49914 25.3826C8.96116 25.3562 9.74348 25.3328 10.5215 25.2622C11.7426 25.1515 12.9407 24.9152 14.09 24.4735C14.6589 24.2549 15.2098 23.9976 15.6488 23.5578C16.1113 23.0944 16.1205 22.6358 15.6404 22.1973C15.3795 21.9589 15.0803 21.7483 14.7676 21.5836C13.5955 20.9662 12.3162 20.7093 11.0179 20.5364C10.9328 20.5251 10.8017 20.606 10.7437 20.6831C10.1581 21.4605 9.58196 22.2452 9.00592 23.0298C8.66864 23.4893 8.33643 23.4881 8.00008 23.0278C7.4257 22.2419 6.84446 21.4611 6.27301 20.6732C6.18203 20.5478 6.08772 20.5033 5.9384 20.5353C5.16721 20.7009 4.38649 20.8298 3.62555 21.0332C2.83645 21.244 2.07751 21.5533 1.45391 22.1083C0.856617 22.6398 0.844028 23.1565 1.47382 23.6517C1.86665 23.9606 2.31848 24.22 2.7815 24.4094C4.50784 25.1156 6.33242 25.3129 8.49914 25.3826Z" fill="#8E8E8E"/>
<path fill-rule="evenodd" clip-rule="evenodd" d="M11.9998 9.27561C12.0036 11.2009 10.4418 12.7756 8.52104 12.783C6.5861 12.7904 5.00668 11.2181 5.00781 9.28547C5.00901 7.36118 6.57451 5.79402 8.49872 5.79096C10.4217 5.7879 11.996 7.35479 11.9998 9.27561ZM8.50279 11.7839C9.87287 11.7843 10.9985 10.6621 11.0005 9.29386C11.0024 7.92158 9.88646 6.79659 8.51684 6.79006C7.13577 6.78354 6.00399 7.91192 6.00732 9.29219C6.01058 10.6631 7.13257 11.7835 8.50279 11.7839Z" fill="#8E8E8E"/>
<path fill-rule="evenodd" clip-rule="evenodd" d="M14.9959 9.05916C14.9959 9.16573 14.9987 9.24072 14.9954 9.31545C14.9818 9.61523 14.7706 9.83222 14.4957 9.83109C14.2233 9.82996 14.0337 9.60904 13.9941 9.31279C13.9162 8.73041 13.8865 8.12806 13.7084 7.57532C13.1772 5.92677 12.0638 4.79473 10.4552 4.15228C10.1381 4.0256 9.99035 3.84204 10.0198 3.59395C10.0609 3.24615 10.3872 3.06479 10.7508 3.19879C11.903 3.62345 12.8603 4.32032 13.6161 5.28732C14.4885 6.40378 14.9353 7.67796 14.9959 9.05916Z" fill="#8E8E8E"/>
<path fill-rule="evenodd" clip-rule="evenodd" d="M9.0477 3.29919C9.0439 3.57279 8.80333 3.80157 8.53033 3.79112C8.26225 3.78086 8.05026 3.55721 8.05325 3.28787C8.05645 3.00874 8.28923 2.78555 8.56656 2.79601C8.83071 2.80586 9.05136 3.03664 9.0477 3.29919Z" fill="#8E8E8E"/>
</svg>
