<svg width="17" height="18" viewBox="0 0 17 18" fill="none" xmlns="http://www.w3.org/2000/svg">
<path fill-rule="evenodd" clip-rule="evenodd" d="M8.49648 17.7961C3.79659 17.7953 -0.00409612 13.9859 3.31314e-06 9.28021C0.00405669 4.59177 3.81372 0.794301 8.51131 0.796143C13.1994 0.798032 17.0033 4.61005 17 9.30319C16.9967 13.9949 13.1899 17.797 8.49648 17.7961ZM4.6372 5.12074C3.90013 4.84764 3.19199 4.58523 2.47473 4.31945C1.48971 5.37201 0.577287 7.73912 0.70658 8.93967C1.829 8.93967 2.95197 8.93967 4.08115 8.93967C4.11662 7.62945 4.28336 6.35091 4.6372 5.12074ZM0.684885 9.64598C0.782305 11.4096 1.3834 12.9561 2.4669 14.2739C3.20595 14.0007 3.91446 13.7388 4.63776 13.4715C4.28041 12.2361 4.11754 10.9524 4.07991 9.64598C2.94607 9.64598 1.83167 9.64598 0.684885 9.64598ZM16.315 8.94672C16.2168 7.18228 15.6166 5.63543 14.533 4.31825C13.7931 4.59172 13.0846 4.85358 12.3622 5.12056C12.7197 6.35708 12.8818 7.64087 12.92 8.94672C14.0548 8.94672 15.1693 8.94672 16.315 8.94672ZM14.5343 14.2738C15.6197 12.9444 16.2219 11.4 16.3128 9.65142C15.1648 9.65142 14.0461 9.65142 12.9187 9.65142C12.8833 10.9645 12.7144 12.2471 12.3634 13.4716C13.0934 13.7413 13.7976 14.0016 14.5343 14.2738ZM8.1501 8.94672C8.1501 7.80978 8.1501 6.68919 8.1501 5.5926C7.19917 5.4885 6.25846 5.38555 5.30011 5.28067C4.95636 6.46031 4.79045 7.68836 4.76594 8.94676C5.90338 8.94672 7.01819 8.94672 8.1501 8.94672ZM8.85469 5.59186C8.85469 6.69329 8.85469 7.81798 8.85469 8.94064C9.98605 8.94064 11.105 8.94064 12.2362 8.94064C12.2044 7.68154 12.0446 6.45598 11.6991 5.2803C10.7414 5.38518 9.8007 5.48822 8.85469 5.59186ZM8.14508 13C8.14508 11.8984 8.14508 10.7738 8.14508 9.65192C7.01345 9.65192 5.89449 9.65192 4.76447 9.65192C4.79395 10.9116 4.95585 12.1369 5.30067 13.3112C6.25892 13.2063 7.19954 13.1034 8.14508 13ZM8.84742 12.9992C9.80411 13.1042 10.7445 13.2073 11.7005 13.3122C12.0421 12.1283 12.2102 10.9009 12.2336 9.65192C11.0894 9.65192 9.97048 9.65192 8.84737 9.65192C8.84742 10.7806 8.84742 11.8962 8.84742 12.9992ZM11.4857 4.62442C11.2472 3.97956 10.9779 3.41084 10.6196 2.88642C10.3084 2.43097 9.94892 2.02106 9.46123 1.74847C9.27555 1.64469 9.06892 1.57827 8.85258 1.4867C8.85258 2.64147 8.85258 3.74861 8.85258 4.90821C9.73253 4.81337 10.5967 4.72019 11.4857 4.62442ZM8.14904 1.48136C7.91837 1.5832 7.69607 1.65068 7.50649 1.77016C6.45924 2.42995 5.97159 3.48596 5.52392 4.57749C6.24842 4.74571 7.78539 4.90577 8.14909 4.85146C8.14904 3.74524 8.14904 2.63774 8.14904 1.48136ZM8.85156 17.0759C9.15151 17.0227 9.40577 16.8955 9.64363 16.7317C10.033 16.4638 10.3392 16.1145 10.6045 15.7281C10.9696 15.1963 11.248 14.6208 11.4667 14.0128C10.8415 13.8539 9.18974 13.6836 8.85156 13.7426C8.85156 14.8486 8.85156 15.9556 8.85156 17.0759ZM8.15162 13.6824C7.26554 13.7786 6.40213 13.8724 5.50633 13.9697C5.62236 14.2453 5.70172 14.474 5.81194 14.6867C5.99145 15.033 6.17564 15.3787 6.386 15.7066C6.68057 16.1656 7.04569 16.5656 7.52767 16.8361C7.71712 16.9425 7.92758 17.0114 8.15162 17.1072C8.15162 15.9514 8.15162 14.8485 8.15162 13.6824ZM10.657 16.8132C11.9198 16.4514 13.0478 15.7938 14.0537 14.8037C13.3976 14.5709 12.7801 14.3517 12.1837 14.14C11.9435 14.6452 11.7511 15.1205 11.4984 15.5612C11.2457 16.0018 10.9328 16.4078 10.657 16.8132ZM14.0371 3.79324C13.3375 2.9691 11.3839 1.83737 10.6068 1.79094C11.33 2.55174 11.7789 3.46436 12.1547 4.46367C12.7812 4.24055 13.3947 4.02208 14.0371 3.79324ZM6.37831 1.78371C5.07492 2.14584 3.94919 2.8001 2.97587 3.76003C3.5953 4.05294 4.21229 4.27426 4.85885 4.43069C5.22305 3.4539 5.67542 2.54805 6.37831 1.78371ZM4.84554 14.1288C4.21662 14.3529 3.59912 14.573 2.94699 14.8054C3.95472 15.7926 5.07994 16.4523 6.42631 16.8357C5.67307 16.0453 5.22213 15.1323 4.84554 14.1288Z" fill="#8E8E8E"/>
</svg>
